<svg width="18.239mm" height="18.239mm" version="1.1" viewBox="0 0 18.239 18.239" xmlns="http://www.w3.org/2000/svg"><g transform="translate(-91.257 -22.687)"><g transform="matrix(.26364 0 0 .26364 72.764 15)"><rect x="70.143" y="29.155" width="69.181" height="69.181" ry="3.7517"/><g transform="matrix(.35322 0 0 .35322 -798.91 -1035.3)"><g fill="#fff"><g transform="matrix(4.4164 0 0 4.4164 -715.78 2247.7)"><path d="m730.93 199.53c0-2.1847-0.94761-3.277-2.8428-3.277-0.41123 0-0.82247 0.0455-1.2337 0.13654-0.39335 0.091-0.71518 0.20482-0.96549 0.34136v6.1671c0.19667 0.0303 0.44699 0.0607 0.75094 0.091 0.30396 0.0152 0.63472 0.0228 0.99231 0.0228 1.0906 0 1.9131-0.31859 2.4674-0.95579 0.55427-0.63719 0.8314-1.4792 0.8314-2.526zm4.0765 0.091c0 0.95579-0.16986 1.8206-0.50958 2.5943-0.32182 0.77374-0.79562 1.4337-1.4214 1.9798-0.62578 0.54617-1.3946 0.97097-2.3064 1.2744-3.0088 0.93474-6.1102 0.19677-8.8772-0.77952v-15.224l3.9961-1.519v5.4332c0 0.47713 0.91185 0.23333 1.3946 0.1423 0.48275-0.091 1.0012-0.13654 1.5555-0.13654 1.0012 0 1.8863 0.15171 2.6551 0.45514 0.76882 0.28825 1.4125 0.70546 1.931 1.2516 0.51851 0.54617 0.91186 1.2061 1.18 1.9798 0.26819 0.75857 0.40229 1.6082 0.40229 2.5488z" fill="#fff" stroke-width=".77202"/></g><path d="m2575.8 3119.8c-6.4299-1.5052-13.104-5.3805-18.688-4.6116-7.4799 1.2657 9.7799 34.468 9.7799 41.873h-28.639v-54.724c3.1584-0.938 6.8697-1.8091 11.134-2.6131 4.3429-0.871 9.1596-1.3065 14.45-1.3065 0.9476 0 2.0925 0.067 3.4349 0.201 1.3424 0.067 2.6847 0.2009 4.0271 0.4018 1.3424 0.1339 2.6847 0.3352 4.027 0.6031 1.3424 0.2009 2.4874 0.469 3.4349 0.804z" stroke-width="3.4095"/><path d="m2644.3 3129.1c0 4.1541-0.7107 7.9732-2.132 11.457-1.4213 3.4171-3.4743 6.3652-6.159 8.8443-2.6847 2.412-5.9222 4.2881-9.7124 5.6281-3.7113 1.3401-7.8962 2.0101-12.555 2.0101-4.5798 0-8.7648-0.67-12.555-2.0101-3.7112-1.34-6.9092-3.2161-9.5939-5.6281-2.6847-2.4791-4.7773-5.4272-6.2775-8.8443-1.5003-3.4841-2.2504-7.3032-2.2504-11.457s0.7501-7.9398 2.2504-11.357c1.5793-3.4172 3.7113-6.3317 6.3959-8.7438 2.7637-2.4121 6.0011-4.2881 9.7124-5.6282 3.7902-1.34 7.8962-2.01 12.318-2.01 4.5009 0 8.6069 0.67 12.318 2.01 3.7902 1.3401 7.0277 3.2161 9.7124 5.6282s4.7772 5.3266 6.2775 8.7438c1.5003 3.417 2.2504 7.2027 2.2504 11.357zm-18.003 0c0-4.6232-1.1055-8.2413-3.3164-10.854-2.132-2.6801-5.2115-4.0201-9.2386-4.0201s-7.1295 1.3537-9.3571 4.0201c-2.1944 2.6268-3.3163 6.2311-3.3163 10.854 0 4.6231 1.0889 8.3215 3.3163 11.055 2.1946 2.6935 5.33 4.0201 9.3571 4.0201s7.1066-1.34 9.2386-4.0201c2.2109-2.7471 3.3164-6.4322 3.3164-11.055z" stroke-width="3.4095"/></g><g transform="matrix(1.0143 0 0 1.0143 -35.394 233.76)" fill="#f60"><path d="m2482.1 2892.8h-0.317c-1.2183 0-2.6782 0.057-4.3806 0.1663-1.6798 0.084-3.3021 0.2637-4.8682 0.5416l-0.2604 0.046v4.8167l7.3628 4.2518v-3.5888c0.3417-0.033 0.6875-0.064 1.0663-0.064h0.02c0.4834-0.027 0.952-0.04 1.4065-0.04 3.3186 0 5.6865 0.7614 7.1598 2.2257 1.4816 1.4725 2.2378 3.6508 2.2378 6.6025 0 2.8081-0.7928 4.9569-2.3675 6.5189-1.5343 1.5493-3.927 2.3467-7.2431 2.3467h-1.5152c-0.2845-0.019-0.5243-0.039-0.7643-0.059v-3.5902l-7.3627 4.2505v4.7717l0.2543 0.05c1.567 0.306 3.163 0.5023 4.7876 0.5846 1.6167 0.111 3.0325 0.1664 4.2505 0.1664 2.6717 0 5.0894-0.3072 7.2518-0.9234 2.1635-0.6162 4.003-1.5443 5.5079-2.7881 1.5355-1.2454 2.7197-2.8206 3.5438-4.7105 0.8263-1.8952 1.2338-4.1036 1.2338-6.6197-1e-4 -2.625-0.4067-4.8895-1.2338-6.7869-0.8245-1.8904-2.0093-3.4518-3.5464-4.6701-1.5336-1.2152-3.3742-2.1012-5.5102-2.6622-2.0135-0.5361-4.2617-0.7979-6.7159-0.8205zm-9.7541 7.4313v15.14l13.113-7.5708z" color="#000000" stroke-width=".62956" style="-inkscape-stroke:none"/><path d="m2507.6 2892.8v29.963h21.021v-6.1717h-13.614v-6.4436h12.039v-6.0447h-12.039v-5.1312h13.56v-6.1717z" color="#000000" stroke-width=".62611" style="-inkscape-stroke:none"/><path d="m2546.9 2892.8-8.9685 0.01 9.3918 14.444c-2.0335 2.7554-3.8997 5.373-5.5738 7.8326-1.6846 2.5178-3.1669 4.9243-4.4466 7.2188l-0.2592 0.4647h8.4647l0.086-0.1761c0.2542-0.5224 0.6574-1.2517 1.2056-2.1791 0.5502-0.9307 1.1295-1.9036 1.7378-2.9191 0.6344-1.0111 1.255-1.9656 1.8601-2.8638l-0.01 0.01c0.5297-0.7505 0.9306-1.2796 1.2965-1.7524 1.1863 1.616 2.2655 3.213 3.1757 4.7776 1.0104 1.6589 1.9346 3.3034 2.7712 4.9332l0.087 0.1699h8.8428l-0.2485-0.4608c-0.9615-1.7878-2.2677-3.9804-3.9214-6.5804-1.6235-2.5799-3.6451-5.3867-6.0156-8.3939l9.2572-14.527h-8.4891l-5.0616 8.8331z" color="#000000" stroke-width=".62611" style="-inkscape-stroke:none"/></g></g></g></g></svg>
