<svg width="1610.6mm" height="1404.2mm" version="1.1" viewBox="0 0 1610.6 1404.2" xmlns="http://www.w3.org/2000/svg"><g transform="translate(652.49 406.78)"><g><path d="m-455.33 997.43c-6.9801 0-12.646-6.618-13.904-13.335-1.0541-5.6057-2.2542-11.987-3.5934-19.11l1416-266.26c1.3406 7.119 2.54 13.504 3.5948 19.11 1.464 7.74-2.5859 17.477-11.342 18.21-73.395 6.7945-146.7 14.64-219.85 23.626-190.28 23.368-379.74 54.088-567.75 91.69-201.8 40.358-402.02 88.791-599.84 145.58-1.1158 0.33169-2.2112 0.48686-3.277 0.48686m128.5-917.57c-0.43745-1.1007-0.77576-2.2542-1.0022-3.4608-1.8951-10.079 4.7396-19.787 14.819-21.682 1.1589-0.21872 2.3142-0.32456 3.4519-0.32456 2.5675 0 5.0525 0.53622 7.3247 1.5169l-2.6197 3.8312 4e-3 0.0035c-0.24906 0.38806-0.35666 0.8643-0.26493 1.3511 0.0451 0.23989 0.1344 0.46214 0.25823 0.65617-1.1014-0.20461-2.2313-0.31044-3.3771-0.31044-1.1384 0-2.2934 0.1023-3.453 0.32103-8.8741 1.6686-15.078 9.3945-15.141 18.098m35.82-6.7381c-2.0532-5.1541-6.283-9.0311-11.383-10.732 0.24589-0.13406 0.45544-0.32103 0.61631-0.54328l3e-3 0.0035 2.8085-4.1204c3.8523 2.6846 6.6957 6.8263 7.6341 11.804 0.22577 1.2065 0.33161 2.4059 0.32102 3.5878m740.8-139.3c-0.43745-1.0971-0.77611-2.2542-1.0019-3.4608-0.99484-5.2987 0.36689-10.495 3.3479-14.51l4.8578 3.3196 4e-3 -0.0035c0.0282 0.01764 0.0564 0.03528 0.0882 0.05292-4.4768 3.4255-7.2531 8.7983-7.2954 14.601m35.821-6.7381c-2.7975-7.0273-9.652-11.68-17.226-11.68-1.1395 0-2.2931 0.10583-3.4537 0.32456-1.8098 0.33867-3.5101 0.93133-5.0694 1.7321-4e-3 -0.06703-0.0141-0.13758-0.0247-0.20814-0.0917-0.48683-0.36689-0.89253-0.73731-1.1606v-0.0035l-4.4203-3.0198c2.4377-2.1766 5.4822-3.7394 8.9288-4.3886 1.1571-0.2152 2.3142-0.32103 3.4537-0.32103 8.7559 0 16.549 6.223 18.228 15.141 0.22578 1.2065 0.33161 2.4059 0.32103 3.5842" fill="#939598"/><path d="m-306.16 91.225c-10.079 1.8944-19.787-4.7413-21.682-14.82-1.8951-10.079 4.7396-19.787 14.819-21.682 10.079-1.8944 19.788 4.7413 21.682 14.817 1.8944 10.082-4.7413 19.787-14.819 21.685m769.76-182.54c10.079-1.8944 19.787 4.7413 21.682 14.82 1.8944 10.079-4.7413 19.787-14.82 21.682-10.079 1.8979-19.787-4.7378-21.682-14.82-1.8944-10.075 4.7413-19.784 14.82-21.682m318.05-86.057-1422.3 267.44c-8.1629 1.5346-13.322 10.534-11.523 20.101l158.12 840.87c1.7988 9.5673 9.8746 16.08 18.038 14.545l1422.3-267.44c8.1633-1.5349 13.321-10.534 11.525-20.102l-158.12-840.87c-1.7992-9.5673-9.8778-16.076-18.041-14.542" fill="#ededed"/><path d="m-263.04 19.071 193.1-297.17 43.684-64.054c0.07761 0.33867 0.15522 0.68086 0.23989 1.0195l-231.95 359.25-5.0659 0.9525" fill="#bcbec0"/><path d="m7.8576-392.18-2.5435-1.7357-310.18 453.66 4e-3 0.0035c-0.24906 0.38806-0.35666 0.8643-0.26493 1.3511 0.18979 1.0125 1.1652 1.6792 2.178 1.4887 0.48648-0.09172 0.89217-0.36689 1.162-0.73731l3e-3 0.0035 309.64-454.04" fill="#231f20"/><path d="m400.28-105.66-341.96-245.59c0.0035-0.64911-0.01058-1.3018-0.03881-1.9544l76.158 52.028 270.91 194.56-5.0659 0.9525" fill="#bcbec0"/><path d="m3.208-390.84 2.1061-3.0798 453.78 310.01v0.0035c0.37042 0.26811 0.64559 0.67381 0.73731 1.1606 0.1905 1.0125-0.47625 1.9897-1.4887 2.1802-0.48684 0.09172-0.96661-0.01764-1.3511-0.26458l-4e-3 0.0035-453.78-310.01" fill="#231f20"/><path d="m15.481-308.6c-19.403 0-36.752-13.25-41.497-32.54l16.602-25.718 15.127-22.183 52.613 37.786c-0.04586 20.14-14.369 38.051-34.89 41.91-2.6705 0.50095-5.334 0.74436-7.9551 0.74436m-42.482-38.054c-2.3707-21.015 11.074-40.679 31.517-46.097l-31.517 46.097m84.797-11.412-49.939-34.117-1.4852-1.016c0.41275-0.0917 0.82903-0.17639 1.2453-0.254 2.6741-0.50095 5.3375-0.74436 7.9587-0.74436 20.179 0 38.139 14.337 42.005 34.89 0.07761 0.41628 0.14817 0.82903 0.2152 1.2418" fill="#939598"/><path d="m-26.016-341.14c-0.08467-0.33867-0.16228-0.68086-0.23989-1.0195l16.842-24.698-16.602 25.718" fill="#6c6f72"/><path d="m-26.256-342.16c-0.09525-0.44097-0.18697-0.88547-0.27164-1.33-0.19756-1.0583-0.35631-2.1131-0.47272-3.1644l31.517-46.097-1.3088 1.912 2.5047 1.7992-15.127 22.183-16.842 24.698m34.114-50.024-1.4887-1.016h0.00353l1.4852 1.016" fill="#141213"/><path d="m58.326-351.25-52.613-37.786 0.042333-0.06 52.532 35.892c0.02822 0.65264 0.04233 1.3053 0.03881 1.9544" fill="#6c6f72"/><path d="m5.7127-389.04-2.5047-1.7992 2.5471 1.7392-0.042333 0.06" fill="#0f0d0e"/><path d="m58.287-353.2-52.532-35.892-2.5471-1.7392 1.3088-1.912c0.61031-0.16228 1.2312-0.31398 1.8521-0.44803l1.4887 1.016 49.939 34.117c0.25753 1.6263 0.4198 3.2491 0.49036 4.8578" fill="#141213"/><path d="m55.214-371.89c4.3674 23.227-10.918 45.597-34.145 49.964-23.227 4.3674-45.597-10.922-49.964-34.149-4.3674-23.223 10.922-45.593 34.149-49.96s45.593 10.918 49.96 34.145" fill="#ededed"/><g><path d="m-349.72 252.8c-5.2846-4.4203-11.319-7.4471-18.105-9.0734-6.791-1.6263-14.295-1.6651-22.516-0.11995-8.2261 1.5452-15.54 4.5685-21.951 9.0593-6.4103 4.4979-11.651 10.079-15.718 16.743-4.07 6.671-6.8132 14.199-8.2328 22.592-1.4238 8.3926-1.2693 17.173 0.45226 26.328 1.7572 9.3451 4.8105 17.625 9.168 24.832 4.354 7.2108 9.5917 13.194 15.71 17.942 6.1182 4.7554 12.883 8.0786 20.305 9.9695 7.4175 1.8979 15.053 2.1026 22.902 0.62794 8.9701-1.6863 16.561-5.0447 22.774-10.089 6.2092-5.0341 10.928-11.342 14.149-18.912l41.557 20.341c-6.1983 13.353-15.215 24.049-27.056 32.078-11.841 8.0328-24.586 13.331-38.226 15.896-15.515 2.9175-30.268 3.175-44.261 0.77611-13.997-2.3954-26.611-7.232-37.847-14.506-11.235-7.2708-20.729-16.856-28.48-28.748-7.7512-11.896-13.12-25.781-16.107-41.67-2.9863-15.882-3.03-30.776-0.12842-44.672 2.902-13.896 8.2663-26.271 16.093-37.13 7.8274-10.855 17.823-19.939 29.993-27.263 12.166-7.3166 26.005-12.435 41.52-15.353 5.607-1.0548 11.543-1.6369 17.811-1.7533 6.2646-0.11289 12.555 0.39511 18.864 1.5311 6.3087 1.1359 12.521 3.0656 18.647 5.782 6.1214 2.7234 11.84 6.3853 17.16 10.996l-28.474 33.796"/><path d="m-243.77 282.22c1.7568 9.3486 4.8119 17.628 9.1687 24.836 4.3533 7.2108 9.7755 13.159 16.27 17.836 6.4911 4.6849 13.822 7.8987 21.985 9.652 8.1668 1.7568 16.919 1.7533 26.268-4e-3 9.3416-1.7568 17.501-4.9354 24.472-9.5356 6.9744-4.6002 12.629-10.259 16.979-16.983 4.3462-6.7169 7.239-14.224 8.6819-22.528 1.4358-8.2973 1.2771-17.12-0.47977-26.465-1.7216-9.1546-4.7696-17.388-9.1405-24.694-4.378-7.3025-9.8072-13.293-16.298-17.978-6.4946-4.6814-13.818-7.8952-21.985-9.652-8.1668-1.7533-16.923-1.7533-26.268 4e-3 -9.3451 1.7568-17.501 4.9389-24.472 9.5356-6.9709 4.6038-12.633 10.262-16.979 16.979-4.3498 6.724-7.2355 14.277-8.6536 22.67-1.4252 8.3961-1.27 17.173 0.45156 26.328zm-45.413 8.5408c-2.988-15.882-3.0304-30.776-0.13053-44.672 2.9034-13.899 8.2691-26.271 16.094-37.13 7.8281-10.855 17.826-19.943 29.993-27.263 12.167-7.3201 26.007-12.439 41.518-15.356 15.512-2.9139 30.265-3.1715 44.263-0.77611 13.995 2.4024 26.61 7.2355 37.846 14.506 11.236 7.2743 20.729 16.856 28.48 28.748 7.7541 11.896 13.123 25.788 16.108 41.67 2.988 15.886 3.0304 30.776 0.13053 44.672-2.9034 13.896-8.2656 26.275-16.094 37.13-7.8281 10.859-17.826 19.946-29.993 27.263-12.171 7.3201-26.01 12.439-41.518 15.356-15.515 2.9175-30.272 3.1715-44.263 0.77611-13.998-2.3989-26.61-7.2319-37.846-14.506-11.236-7.2708-20.729-16.856-28.48-28.751-7.754-11.892-13.12-25.781-16.108-41.667"/><path d="m-63.957 145.67 66.156-12.439 70.048 120.92 0.56092-0.10584 21.622-138.15 65.878-12.39 37.32 198.48-43.73 8.2232-28.624-152.22-0.56091 0.10583-23.516 162.02-33.362 6.2724-78.8-142.78-0.56092 0.10584 28.621 152.22-43.73 8.2268-37.32-198.48"/><path d="m200.11 96.012 43.73-8.2233 37.32 198.47-43.73 8.2232-37.32-198.47"/><path d="m283.65 80.303 59.429-11.176 110.32 122.06 0.55739-0.10583-25.933-137.92 43.73-8.2233 37.32 198.47-57.185 10.753-113.19-125-0.56092 0.10583 26.564 141.28-43.73 8.2232-37.32-198.47"/><path d="m726.49 188.01c-11.631 9.1546-24.172 16.545-37.627 22.169s-27.471 9.8108-42.048 12.552c-15.515 2.9175-30.268 3.175-44.263 0.77611-13.995-2.3989-26.61-7.2319-37.846-14.506-11.236-7.2708-20.729-16.856-28.48-28.748-7.7505-11.896-13.12-25.781-16.108-41.67-2.988-15.882-3.0304-30.776-0.127-44.672 2.8998-13.896 8.2656-26.271 16.09-37.13 7.8281-10.855 17.826-19.943 29.993-27.263 12.167-7.3166 26.007-12.435 41.522-15.353 15.882-2.988 30.868-3.8206 44.951-2.5047 14.083 1.3229 27.051 5.7044 38.897 13.148l-24.511 39.437c-7.1402-5.0412-14.746-8.4455-22.818-10.22-8.0751-1.7674-17.716-1.6016-28.931 0.50447-9.3451 1.7604-17.501 4.9389-24.472 9.5391-6.9709 4.6038-12.633 10.262-16.979 16.979-4.3498 6.7204-7.232 14.273-8.6536 22.669-1.4217 8.3926-1.27 17.173 0.45155 26.328 1.7604 9.3451 4.8119 17.625 9.1687 24.832 4.3533 7.2108 9.7755 13.159 16.27 17.836 6.4911 4.6849 13.822 7.9022 21.989 9.652 8.1668 1.7568 16.919 1.7533 26.264-4e-3 9.532-1.7921 17.551-4.4097 24.063-7.8634 6.5088-3.4431 11.61-6.6816 15.3-9.6979l-6.0607-32.237-35.602 6.6957-7.5882-40.368 77.65-14.601 19.505 103.72"/></g><g fill="#be1e2d"><path d="m-211.5 651.82c45.159 0.77612 70.076 18.909 74.648 39.733 18.57 84.561-126.75 130.73-187.94 144.16-16.572 3.6407-68.415 15.025-73.828-9.6238-1.959-8.9218 7.9685-34.71 13.367-42.577 4.1663-5.3693 27.464-18.948 33.838-20.348 2.1248-0.46919 3.4925-0.32103 4.0531 2.226 0.93239 4.251-2.8497 7.3096-5.4515 9.6626-2.1763 2.2578-3.8343 4.8507-5.824 7.9587l0.18627 0.8502c152.92-27.788 184.95-80.701 183.45-87.503-4.759-21.668-126.2-12.82-147.34-11.74-21.993 1.27-45.583-0.67733-51.182-26.176-3.0794-14.023-3.0921-46.535 1.1871-59.503 8.4141-24.564 76.464-81.823 169.52-102.26 17.847-3.9194 36.163-5.715 54.85-5.8102 10.238-0.0212 12.263 3.0974 14.129 11.599 6.9039 31.443-2.1343 41-25.058 56.279-16.782 10.813-19.713 13.684-33.673 29.221-2.6 2.353-6.29 5.8349-9.6908 6.5828-4.2474 0.93134-7.2637-0.63147-8.1986-4.8824-0.18697-0.8502 4.9953-15.794 24.49-36.555l-1.0372-0.66675c-108.79 27.901-147.28 77.777-145.56 87.644 1.3063 5.9478-3.5645 10.135 121.06 11.723"/><path d="m-13.838 616.88c-5.5245 1.2136-7.2954-6.8615-8.5619-10.59-18.57 29.023-34.477 68.146-26.825 102.99 3.2667 14.873 12.439 26.218 28.589 22.677 23.795-5.2282 56.847-31.193 71.335-50.408 46.302-60.949 67.215-119.88 61.676-151.18-1.8133-10.291-10.096-19.607-21.146-17.184-37.394 8.2127-81.065 54.772-94.414 89.33-1.8027 3.9582-5.5527 13.247-10.654 14.365zm103.42-123.38c15.974-8.4067 29.189-9.0805 39.088-4.572 9.9907 4.9318 16.76 15.473 20.542 30.678 20.694 84.095-55.34 220.61-152.83 241.13-33.666 6.9462-76.387-5.0518-94.675-70.079-25.255-90.664 93.387-225.85 172.88-255.33 19.318-7.3589 47.191 18.143 48.683 24.941 1.9579 8.9253-11.649 15.921-17.554 19.445-6.2406 4.0464-11.444 8.7489-16.644 13.455l0.51506 0.33161"/><path d="m257.69 557.25c-5.5245 1.2136-7.299-6.8615-8.5619-10.59-18.574 29.02-34.477 68.15-26.825 102.99 3.2632 14.873 12.439 26.222 28.586 22.673 23.795-5.2246 56.847-31.189 71.335-50.408 46.302-60.946 67.215-119.88 61.676-151.18-1.8133-10.291-10.096-19.607-21.146-17.184-37.394 8.2127-81.065 54.772-94.41 89.33-1.8062 3.9582-5.5562 13.247-10.654 14.365zm103.42-123.38c15.97-8.4067 29.185-9.0805 39.084-4.572 9.9907 4.9318 16.76 15.473 20.542 30.678 20.694 84.095-55.337 220.61-152.83 241.13-33.666 6.9462-76.387-5.0518-94.675-70.079-25.255-90.664 93.387-225.85 172.88-255.33 19.322-7.3589 47.191 18.143 48.683 24.941 1.9614 8.9253-11.645 15.921-17.554 19.445-6.2406 4.0428-11.444 8.7489-16.644 13.455l0.51859 0.33161"/><path d="m707.38 377.88-1.0372-0.66322c-28.229 41.832-55.944 83.996-78.645 124.62-9.2463 16.729-40.852 87.81-56.748 122.93-2.0426 4.9036-5.461 13.67-10.986 14.884-9.3486 2.0532-37.303-9.6238-39.448-19.399-0.56091-2.5506 1.3864-7.8775 2.1943-10.28 11.546-30.596 61.874-190.87 56.741-214.24-1.2136-5.5245-3.235-8.6431-8.7595-7.4295-14.45 3.1715-56.152 36.382-117.18 99.226-2.8399 3.2985-7.7117 7.4859-11.536 8.3256-8.0751 1.771-10.633-11.92-11.755-17.018-11.197-50.994 50.278-121.96 63.027-124.75 2.1237-0.46567 4.953 0.25047 5.4187 2.3742 0.0952 0.42334-0.53623 7.6906-16.972 32.233l1.0372 0.66322c26.529-23.199 72.69-64.512 107.96-72.259 14.446-3.1715 30.244 1.8239 32.42 17.826 4.9142 34.555-5.4998 66.238-39.134 174.74l1.0372 0.66322c60.032-116.08 88.406-159.28 97.444-168.84 10.883-11.296 37.433-42.517 47.205-44.665 7.2249-1.584 39.232 12.323 43.713 32.72 5.8773 26.769-36.477 93.532-59.542 183.23-6.9109 27.351-5.8949 36.04-5.521 37.737 1.6792 7.6518 5.5245 17.05 14.873 14.997 16.997-3.7324 60.067-73.321 69.032-91.324 3.0903 10.008 5.0588 14.922 5.8984 18.747 0.74437 3.4008-0.06 5.8032-2.5294 10.799-43.833 92.477-83.411 125.22-101.68 129.23-21.248 4.6672-33.002-12.351-37.013-30.621-5.1329-23.375 0.88547-52.758 7.4542-75.579l43.035-148.87"/></g></g></g></svg>
